# xmcd CD database file
#
# Track frame offsets:
#	150
#	17477
#	36150
#	48290
#	77664
#	101146
#	121320
#	139665
#	168121
#	205033
#	225180
#	254602
#
# Disc length: 3865 seconds
#
# Revision: 0
# Processed by: cddbd v1.5.2PL0 Copyright (c) Steve Scherf et al.
# Submitted via: CDex 1.51
#
DISCID=8e0f170c
DTITLE=Broeck - Rob van den - Halloween time
DYEAR=1900
DGENRE=jazz
TTITLE0=Free fair (pt. 1)
TTITLE1=Free fair (pt. 2)
TTITLE2=Fumes from the orher world (pt. 1)
TTITLE3=Fumes from the other world (pt. 2)
TTITLE4=Interaction (pt. 1)
TTITLE5=Interaction (pt. 2)
TTITLE6=Dreamland
TTITLE7=Slow blue
TTITLE8=Metal beauty
TTITLE9=Visions
TTITLE10=Halloween
TTITLE11=Ratrace
EXTD=
EXTT0=
EXTT1=
EXTT2=
EXTT3=
EXTT4=
EXTT5=
EXTT6=
EXTT7=
EXTT8=
EXTT9=
EXTT10=
EXTT11=
PLAYORDER=
